<svg width="41" height="40" viewBox="0 0 41 40" fill="none" xmlns="http://www.w3.org/2000/svg">
<path d="M3.83336 35C3.36114 35 2.96503 34.84 2.64503 34.52C2.32503 34.2 2.16558 33.8044 2.16669 33.3333C2.16669 32.8611 2.32669 32.465 2.64669 32.145C2.96669 31.825 3.36225 31.6656 3.83336 31.6667H37.1667C37.6389 31.6667 38.035 31.8267 38.355 32.1467C38.675 32.4667 38.8345 32.8622 38.8334 33.3333C38.8334 33.8056 38.6734 34.2017 38.3534 34.5217C38.0334 34.8417 37.6378 35.0011 37.1667 35H3.83336ZM7.16669 30C6.25003 30 5.46503 29.6733 4.81169 29.02C4.15836 28.3667 3.83225 27.5822 3.83336 26.6667V8.33334C3.83336 7.41667 4.16003 6.63167 4.81336 5.97834C5.46669 5.325 6.25114 4.99889 7.16669 5H33.8334C34.75 5 35.535 5.32667 36.1884 5.98C36.8417 6.63334 37.1678 7.41778 37.1667 8.33334V26.6667C37.1667 27.5833 36.84 28.3683 36.1867 29.0217C35.5334 29.675 34.7489 30.0011 33.8334 30H7.16669ZM7.16669 26.6667H33.8334V8.33334H7.16669V26.6667Z" fill="#111111"/>
</svg>
