<svg width="41" height="40" viewBox="0 0 41 40" fill="none" xmlns="http://www.w3.org/2000/svg">
<path d="M8.01094 16.25H32.9891C33.3633 16.2519 33.7331 16.1698 34.0714 16.0097C34.4096 15.8495 34.7076 15.6156 34.9433 15.3249C35.1791 15.0343 35.3465 14.6945 35.4334 14.3305C35.5203 13.9665 35.5244 13.5876 35.4453 13.2219C34.2844 7.73438 28 3.75 20.5 3.75C13 3.75 6.71562 7.73438 5.55469 13.2219C5.47563 13.5876 5.47969 13.9665 5.56658 14.3305C5.65346 14.6945 5.82095 15.0343 6.05669 15.3249C6.29243 15.6156 6.5904 15.8495 6.92864 16.0097C7.26687 16.1698 7.63673 16.2519 8.01094 16.25ZM20.5 6.25C26.7219 6.25 32.0953 9.47031 32.9891 13.75H8.01094L8 13.7391C8.90469 9.47031 14.2781 6.25 20.5 6.25ZM36.3219 23.825L29.8953 26.1687L24.0938 23.8391C23.7958 23.72 23.4635 23.72 23.1656 23.8391L17.3844 26.1531L11.5938 23.8391C11.3087 23.7252 10.9917 23.7202 10.7031 23.825L3.82812 26.325C3.53756 26.4529 3.30654 26.6866 3.18197 26.9786C3.05739 27.2706 3.0486 27.5991 3.15736 27.8973C3.26613 28.1956 3.4843 28.4413 3.76761 28.5845C4.05092 28.7278 4.37812 28.7579 4.68281 28.6687L6.75 27.9203V28.75C6.75 30.4076 7.40848 31.9973 8.58058 33.1694C9.75269 34.3415 11.3424 35 13 35H28C29.6576 35 31.2473 34.3415 32.4194 33.1694C33.5915 31.9973 34.25 30.4076 34.25 28.75V27.2391L37.1766 26.175C37.3407 26.127 37.4932 26.0458 37.6247 25.9365C37.7561 25.8271 37.8638 25.692 37.9409 25.5394C38.0181 25.3868 38.0631 25.22 38.0733 25.0494C38.0834 24.8787 38.0584 24.7077 37.9998 24.5471C37.9412 24.3864 37.8503 24.2395 37.7327 24.1154C37.6151 23.9913 37.4732 23.8927 37.316 23.8256C37.1587 23.7585 36.9893 23.7244 36.8183 23.7253C36.6473 23.7263 36.4784 23.7624 36.3219 23.8313V23.825ZM31.75 28.75C31.75 29.7446 31.3549 30.6984 30.6517 31.4017C29.9484 32.1049 28.9946 32.5 28 32.5H13C12.0054 32.5 11.0516 32.1049 10.3483 31.4017C9.64509 30.6984 9.25 29.7446 9.25 28.75V27.0125L11.1047 26.3375L16.9062 28.6609C17.2042 28.78 17.5365 28.78 17.8344 28.6609L23.6156 26.3469L29.3969 28.6609C29.682 28.7748 29.999 28.7798 30.2875 28.675L31.7359 28.1484L31.75 28.75ZM3 20C3 19.6685 3.1317 19.3505 3.36612 19.1161C3.60054 18.8817 3.91848 18.75 4.25 18.75H36.75C37.0815 18.75 37.3995 18.8817 37.6339 19.1161C37.8683 19.3505 38 19.6685 38 20C38 20.3315 37.8683 20.6495 37.6339 20.8839C37.3995 21.1183 37.0815 21.25 36.75 21.25H4.25C3.91848 21.25 3.60054 21.1183 3.36612 20.8839C3.1317 20.6495 3 20.3315 3 20Z" fill="#111111"/>
</svg>
